<svg xmlns="http://www.w3.org/2000/svg" viewBox="0 0 2400 1350" width="2400" height="1350" role="img" preserveAspectRatio="xMidYMid slice">
  <defs>
    <radialGradient id="bgrad" cx="50%" cy="40%" r="80%">
      <stop offset="0%" stop-color="#15181d"/>
      <stop offset="55%" stop-color="#0a0c10"/>
      <stop offset="100%" stop-color="#000"/>
    </radialGradient>
    <radialGradient id="glow" cx="600" cy="742.5000000000001" r="1080" gradientUnits="userSpaceOnUse">
      <stop offset="0%" stop-color="hsla(12, 95%, 55%, 0.55)"/>
      <stop offset="35%" stop-color="hsla(12, 90%, 45%, 0.18)"/>
      <stop offset="100%" stop-color="hsla(12, 90%, 45%, 0)"/>
    </radialGradient>
    <linearGradient id="floor" x1="0" y1="0" x2="0" y2="1">
      <stop offset="0%" stop-color="rgba(255,255,255,0)"/>
      <stop offset="100%" stop-color="rgba(255,255,255,0.04)"/>
    </linearGradient>
    <filter id="soft"><feGaussianBlur stdDeviation="2"/></filter>
  </defs>
  <rect width="2400" height="1350" fill="url(#bgrad)"/>
  <rect width="2400" height="1350" fill="url(#glow)"/>
  <rect y="944.9999999999999" width="2400" height="405" fill="url(#floor)"/>
  <g transform="translate(1200,540)" opacity="0.92">
  <path d="M-400,80 Q-400,-60 -200,-100 L200,-100 Q400,-60 400,80 L400,160 Q380,200 350,200 L80,200 Q60,160 0,160 Q-60,160 -80,200 L-350,200 Q-380,200 -400,160 Z" fill="#0d1014" stroke="rgba(255,255,255,0.15)"/>
  <circle cx="-280" cy="200" r="40" fill="#0a0c10" stroke="rgba(255,255,255,0.2)"/>
  <circle cx="280" cy="200" r="40" fill="#0a0c10" stroke="rgba(255,255,255,0.2)"/>
</g>
  <line x1="0" y1="972" x2="2400" y2="972" stroke="rgba(255,255,255,0.05)" stroke-width="1"/>
</svg>