<svg xmlns="http://www.w3.org/2000/svg" viewBox="0 0 2400 1350" width="2400" height="1350" role="img" preserveAspectRatio="xMidYMid slice">
  <defs>
    <radialGradient id="bgrad" cx="50%" cy="40%" r="80%">
      <stop offset="0%" stop-color="#15181d"/>
      <stop offset="55%" stop-color="#0a0c10"/>
      <stop offset="100%" stop-color="#000"/>
    </radialGradient>
    <radialGradient id="glow" cx="600" cy="742.5000000000001" r="1080" gradientUnits="userSpaceOnUse">
      <stop offset="0%" stop-color="hsla(12, 95%, 55%, 0.55)"/>
      <stop offset="35%" stop-color="hsla(12, 90%, 45%, 0.18)"/>
      <stop offset="100%" stop-color="hsla(12, 90%, 45%, 0)"/>
    </radialGradient>
    <linearGradient id="floor" x1="0" y1="0" x2="0" y2="1">
      <stop offset="0%" stop-color="rgba(255,255,255,0)"/>
      <stop offset="100%" stop-color="rgba(255,255,255,0.04)"/>
    </linearGradient>
    <filter id="soft"><feGaussianBlur stdDeviation="2"/></filter>
  </defs>
  <rect width="2400" height="1350" fill="url(#bgrad)"/>
  <rect width="2400" height="1350" fill="url(#glow)"/>
  <rect y="944.9999999999999" width="2400" height="405" fill="url(#floor)"/>
  <g transform="translate(1488,675)" opacity="0.92">
  <circle r="280" fill="#0d1014" stroke="rgba(255,255,255,0.18)" stroke-width="2"/>
  <circle r="196" fill="#16191f"/>
  <circle r="84" fill="#1a1d24" stroke="rgba(255,80,100,0.5)" stroke-width="1.5"/>
  <line x1="117.6" y1="0" x2="184.8" y2="0" stroke="rgba(255,255,255,0.07)"/><line x1="113.59287717159442" y1="30.437119704056443" x2="178.5030926982198" y2="47.829759534945836" stroke="rgba(255,255,255,0.07)"/><line x1="101.84458748504998" y1="58.79999999999998" x2="160.04149461936427" y2="92.39999999999999" stroke="rgba(255,255,255,0.07)"/><line x1="83.155757467538" y1="83.15575746753798" x2="130.67333316327398" y2="130.67333316327398" stroke="rgba(255,255,255,0.07)"/><line x1="58.80000000000001" y1="101.84458748504997" x2="92.40000000000002" y2="160.04149461936427" stroke="rgba(255,255,255,0.07)"/><line x1="30.437119704056443" y1="113.59287717159442" x2="47.829759534945836" y2="178.5030926982198" stroke="rgba(255,255,255,0.07)"/><line x1="7.200923178986436e-15" y1="117.6" x2="1.1315736424121544e-14" y2="184.8" stroke="rgba(255,255,255,0.07)"/><line x1="-30.43711970405642" y1="113.59287717159442" x2="-47.829759534945815" y2="178.5030926982198" stroke="rgba(255,255,255,0.07)"/><line x1="-58.799999999999976" y1="101.84458748504998" x2="-92.39999999999996" y2="160.04149461936427" stroke="rgba(255,255,255,0.07)"/><line x1="-83.15575746753798" y1="83.155757467538" x2="-130.67333316327398" y2="130.67333316327398" stroke="rgba(255,255,255,0.07)"/><line x1="-101.84458748504998" y1="58.79999999999998" x2="-160.04149461936427" y2="92.39999999999999" stroke="rgba(255,255,255,0.07)"/><line x1="-113.59287717159442" y1="30.43711970405647" x2="-178.5030926982198" y2="47.829759534945886" stroke="rgba(255,255,255,0.07)"/><line x1="-117.6" y1="1.4401846357972873e-14" x2="-184.8" y2="2.263147284824309e-14" stroke="rgba(255,255,255,0.07)"/><line x1="-113.59287717159442" y1="-30.437119704056446" x2="-178.5030926982198" y2="-47.82975953494585" stroke="rgba(255,255,255,0.07)"/><line x1="-101.84458748505" y1="-58.79999999999996" x2="-160.0414946193643" y2="-92.39999999999995" stroke="rgba(255,255,255,0.07)"/><line x1="-83.15575746753804" y1="-83.15575746753794" x2="-130.67333316327407" y2="-130.67333316327392" stroke="rgba(255,255,255,0.07)"/><line x1="-58.80000000000005" y1="-101.84458748504997" x2="-92.40000000000008" y2="-160.04149461936424" stroke="rgba(255,255,255,0.07)"/><line x1="-30.43711970405642" y1="-113.59287717159442" x2="-47.829759534945815" y2="-178.5030926982198" stroke="rgba(255,255,255,0.07)"/><line x1="-2.1602769536959308e-14" y1="-117.6" x2="-3.394720927236463e-14" y2="-184.8" stroke="rgba(255,255,255,0.07)"/><line x1="30.437119704056386" y1="-113.59287717159444" x2="47.82975953494576" y2="-178.50309269821986" stroke="rgba(255,255,255,0.07)"/><line x1="58.80000000000001" y1="-101.84458748504997" x2="92.40000000000002" y2="-160.04149461936427" stroke="rgba(255,255,255,0.07)"/><line x1="83.15575746753797" y1="-83.155757467538" x2="130.67333316327395" y2="-130.673333163274" stroke="rgba(255,255,255,0.07)"/><line x1="101.84458748504996" y1="-58.80000000000005" x2="160.04149461936422" y2="-92.40000000000008" stroke="rgba(255,255,255,0.07)"/><line x1="113.5928771715944" y1="-30.437119704056535" x2="178.50309269821977" y2="-47.82975953494599" stroke="rgba(255,255,255,0.07)"/>
  <path d="M-84,-238 L84,-238 L112,-154 L-112,-154 Z" fill="#16191f" stroke="rgba(200,16,46,0.5)" stroke-width="1.2"/>
</g>
  <line x1="0" y1="972" x2="2400" y2="972" stroke="rgba(255,255,255,0.05)" stroke-width="1"/>
</svg>