<svg xmlns="http://www.w3.org/2000/svg" viewBox="0 0 2400 1350" width="2400" height="1350" role="img" preserveAspectRatio="xMidYMid slice">
  <defs>
    <pattern id="grid" width="60" height="60" patternUnits="userSpaceOnUse">
    <path d="M 60 0 L 0 0 0 60" fill="none" stroke="rgba(123,233,255,0.05)" stroke-width="1"/>
  </pattern>
  <pattern id="gridMajor" width="300" height="300" patternUnits="userSpaceOnUse">
    <path d="M 300 0 L 0 0 0 300" fill="none" stroke="rgba(123,233,255,0.08)" stroke-width="1"/>
  </pattern>
    <radialGradient id="bgrad" cx="50%" cy="35%" r="80%">
      <stop offset="0%" stop-color="#0e1218"/>
      <stop offset="55%" stop-color="#06080c"/>
      <stop offset="100%" stop-color="#000"/>
    </radialGradient>
    <radialGradient id="glow" cx="528" cy="742.5000000000001" r="1200" gradientUnits="userSpaceOnUse">
      <stop offset="0%" stop-color="hsla(350, 100%, 55%, 0.5)"/>
      <stop offset="35%" stop-color="hsla(350, 95%, 45%, 0.15)"/>
      <stop offset="100%" stop-color="hsla(350, 90%, 45%, 0)"/>
    </radialGradient>
    <radialGradient id="cyanGlow" cx="20%" cy="80%" r="60%">
      <stop offset="0%" stop-color="rgba(123,233,255,0.18)"/>
      <stop offset="100%" stop-color="rgba(123,233,255,0)"/>
    </radialGradient>
    <linearGradient id="floor" x1="0" y1="0" x2="0" y2="1">
      <stop offset="0%" stop-color="rgba(255,255,255,0)"/>
      <stop offset="100%" stop-color="rgba(123,233,255,0.05)"/>
    </linearGradient>
    <filter id="soft"><feGaussianBlur stdDeviation="3"/></filter>
    <filter id="bloom"><feGaussianBlur stdDeviation="6"/></filter>
  </defs>
  <rect width="2400" height="1350" fill="url(#bgrad)"/>
  <rect width="2400" height="1350" fill="url(#grid)"/>
  <rect width="2400" height="1350" fill="url(#gridMajor)"/>
  <rect width="2400" height="1350" fill="url(#cyanGlow)"/>
  <rect width="2400" height="1350" fill="url(#glow)"/>
  <line x1="0" y1="972" x2="2400" y2="972" stroke="rgba(123,233,255,0.18)" stroke-width="1" stroke-dasharray="6 6"/>
  <rect y="972" width="2400" height="378.00000000000006" fill="url(#floor)"/>
  <g transform="translate(1488,675)">
  <circle r="300" fill="#0a0e14" stroke="rgba(255,255,255,0.22)" stroke-width="2"/>
  <circle r="285" fill="none" stroke="rgba(123,233,255,0.25)" stroke-dasharray="3 5"/>
  <circle r="210" fill="#10141b"/>
  <circle r="96" fill="#06080c" stroke="#ff3050" stroke-width="1.6"/>
  <circle r="36" fill="#000" stroke="rgba(255,255,255,0.3)"/>
  <line x1="126" y1="0" x2="198" y2="0" stroke="rgba(255,255,255,0.12)"/><line x1="125.30975881640244" y1="13.170586371724335" x2="196.9153352829181" y2="20.696635726995385" stroke="rgba(255,255,255,0.12)"/><line x1="123.24659769245952" y1="26.196873043037673" x2="193.67322494529353" y2="41.16651478191635" stroke="rgba(255,255,255,0.12)"/><line x1="119.83312105318933" y1="38.93614129124337" x2="188.3091902264404" y2="61.18536488623959" stroke="rgba(255,255,255,0.12)"/><line x1="115.1067276629677" y1="51.24881702755082" x2="180.88200061323496" y2="80.53385532900843" stroke="rgba(255,255,255,0.12)"/><line x1="109.11920087683927" y1="62.999999999999986" x2="171.47302994931886" y2="98.99999999999999" stroke="rgba(255,255,255,0.12)"/><line x1="101.93614129124337" y1="74.06094178885161" x2="160.1853648862396" y2="116.38147995390969" stroke="rgba(255,255,255,0.12)"/><line x1="93.63624801015166" y1="84.31045640121613" x2="147.14267544452406" y2="132.48786005905393" stroke="rgba(255,255,255,0.12)"/><line x1="84.31045640121613" y1="93.63624801015166" x2="132.48786005905393" y2="147.14267544452406" stroke="rgba(255,255,255,0.12)"/><line x1="74.06094178885161" y1="101.93614129124337" x2="116.38147995390969" y2="160.1853648862396" stroke="rgba(255,255,255,0.12)"/><line x1="63.00000000000001" y1="109.11920087683927" x2="99.00000000000003" y2="171.47302994931886" stroke="rgba(255,255,255,0.12)"/><line x1="51.24881702755084" y1="115.1067276629677" x2="80.53385532900847" y2="180.88200061323496" stroke="rgba(255,255,255,0.12)"/><line x1="38.93614129124338" y1="119.83312105318933" x2="61.1853648862396" y2="188.3091902264404" stroke="rgba(255,255,255,0.12)"/><line x1="26.196873043037662" y1="123.24659769245952" x2="41.166514781916334" y2="193.67322494529353" stroke="rgba(255,255,255,0.12)"/><line x1="13.170586371724335" y1="125.30975881640244" x2="20.696635726995385" y2="196.9153352829181" stroke="rgba(255,255,255,0.12)"/><line x1="3.5692895055182265e-14" y1="126" x2="5.6088835086715e-14" y2="198" stroke="rgba(255,255,255,0.12)"/><line x1="-13.170586371724319" y1="125.30975881640245" x2="-20.69663572699536" y2="196.91533528291816" stroke="rgba(255,255,255,0.12)"/><line x1="-26.196873043037677" y1="123.24659769245952" x2="-41.16651478191635" y2="193.67322494529353" stroke="rgba(255,255,255,0.12)"/><line x1="-38.93614129124336" y1="119.83312105318936" x2="-61.185364886239576" y2="188.30919022644042" stroke="rgba(255,255,255,0.12)"/><line x1="-51.248817027550814" y1="115.10672766296773" x2="-80.53385532900843" y2="180.882000613235" stroke="rgba(255,255,255,0.12)"/><line x1="-62.99999999999997" y1="109.11920087683927" x2="-98.99999999999997" y2="171.47302994931886" stroke="rgba(255,255,255,0.12)"/><line x1="-74.0609417888516" y1="101.93614129124337" x2="-116.38147995390966" y2="160.1853648862396" stroke="rgba(255,255,255,0.12)"/><line x1="-84.3104564012161" y1="93.6362480101517" x2="-132.48786005905387" y2="147.14267544452412" stroke="rgba(255,255,255,0.12)"/><line x1="-93.63624801015166" y1="84.31045640121614" x2="-147.14267544452403" y2="132.48786005905396" stroke="rgba(255,255,255,0.12)"/><line x1="-101.93614129124336" y1="74.06094178885162" x2="-160.1853648862396" y2="116.3814799539097" stroke="rgba(255,255,255,0.12)"/><line x1="-109.11920087683927" y1="62.999999999999986" x2="-171.47302994931886" y2="98.99999999999999" stroke="rgba(255,255,255,0.12)"/><line x1="-115.10672766296773" y1="51.2488170275508" x2="-180.882000613235" y2="80.5338553290084" stroke="rgba(255,255,255,0.12)"/><line x1="-119.83312105318933" y1="38.93614129124339" x2="-188.3091902264404" y2="61.18536488623961" stroke="rgba(255,255,255,0.12)"/><line x1="-123.24659769245952" y1="26.196873043037673" x2="-193.67322494529353" y2="41.16651478191635" stroke="rgba(255,255,255,0.12)"/><line x1="-125.30975881640245" y1="13.170586371724314" x2="-196.91533528291816" y2="20.696635726995353" stroke="rgba(255,255,255,0.12)"/><line x1="-126" y1="7.138579011036453e-14" x2="-198" y2="1.1217767017343e-13" stroke="rgba(255,255,255,0.12)"/><line x1="-125.30975881640245" y1="-13.170586371724283" x2="-196.91533528291816" y2="-20.696635726995304" stroke="rgba(255,255,255,0.12)"/><line x1="-123.24659769245952" y1="-26.19687304303764" x2="-193.67322494529353" y2="-41.1665147819163" stroke="rgba(255,255,255,0.12)"/><line x1="-119.83312105318936" y1="-38.93614129124335" x2="-188.30919022644042" y2="-61.18536488623956" stroke="rgba(255,255,255,0.12)"/><line x1="-115.1067276629677" y1="-51.24881702755083" x2="-180.88200061323496" y2="-80.53385532900845" stroke="rgba(255,255,255,0.12)"/><line x1="-109.11920087683929" y1="-62.999999999999964" x2="-171.4730299493189" y2="-98.99999999999994" stroke="rgba(255,255,255,0.12)"/><line x1="-101.93614129124337" y1="-74.0609417888516" x2="-160.1853648862396" y2="-116.38147995390966" stroke="rgba(255,255,255,0.12)"/><line x1="-93.63624801015166" y1="-84.31045640121613" x2="-147.14267544452406" y2="-132.48786005905393" stroke="rgba(255,255,255,0.12)"/><line x1="-84.31045640121616" y1="-93.63624801015165" x2="-132.487860059054" y2="-147.14267544452403" stroke="rgba(255,255,255,0.12)"/><line x1="-74.06094178885162" y1="-101.93614129124336" x2="-116.3814799539097" y2="-160.1853648862396" stroke="rgba(255,255,255,0.12)"/><line x1="-63.00000000000006" y1="-109.11920087683924" x2="-99.0000000000001" y2="-171.47302994931883" stroke="rgba(255,255,255,0.12)"/><line x1="-51.24881702755091" y1="-115.10672766296767" x2="-80.53385532900859" y2="-180.88200061323494" stroke="rgba(255,255,255,0.12)"/><line x1="-38.93614129124339" y1="-119.83312105318933" x2="-61.18536488623962" y2="-188.3091902264404" stroke="rgba(255,255,255,0.12)"/><line x1="-26.196873043037733" y1="-123.24659769245949" x2="-41.16651478191644" y2="-193.6732249452935" stroke="rgba(255,255,255,0.12)"/><line x1="-13.170586371724433" y1="-125.30975881640244" x2="-20.696635726995538" y2="-196.9153352829181" stroke="rgba(255,255,255,0.12)"/><line x1="-2.3145824503884975e-14" y1="-126" x2="-3.637200993467639e-14" y2="-198" stroke="rgba(255,255,255,0.12)"/><line x1="13.170586371724276" y1="-125.30975881640245" x2="20.696635726995293" y2="-196.91533528291816" stroke="rgba(255,255,255,0.12)"/><line x1="26.196873043037687" y1="-123.24659769245949" x2="41.16651478191637" y2="-193.6732249452935" stroke="rgba(255,255,255,0.12)"/><line x1="38.93614129124335" y1="-119.83312105318936" x2="61.185364886239554" y2="-188.30919022644042" stroke="rgba(255,255,255,0.12)"/><line x1="51.24881702755077" y1="-115.10672766296773" x2="80.53385532900836" y2="-180.882000613235" stroke="rgba(255,255,255,0.12)"/><line x1="63.00000000000001" y1="-109.11920087683927" x2="99.00000000000003" y2="-171.47302994931886" stroke="rgba(255,255,255,0.12)"/><line x1="74.0609417888516" y1="-101.93614129124339" x2="116.38147995390965" y2="-160.18536488623963" stroke="rgba(255,255,255,0.12)"/><line x1="84.31045640121616" y1="-93.63624801015165" x2="132.487860059054" y2="-147.14267544452403" stroke="rgba(255,255,255,0.12)"/><line x1="93.63624801015166" y1="-84.31045640121611" x2="147.14267544452406" y2="-132.48786005905393" stroke="rgba(255,255,255,0.12)"/><line x1="101.93614129124336" y1="-74.06094178885164" x2="160.1853648862396" y2="-116.38147995390972" stroke="rgba(255,255,255,0.12)"/><line x1="109.11920087683929" y1="-62.99999999999995" x2="171.4730299493189" y2="-98.99999999999993" stroke="rgba(255,255,255,0.12)"/><line x1="115.10672766296773" y1="-51.24881702755082" x2="180.882000613235" y2="-80.53385532900843" stroke="rgba(255,255,255,0.12)"/><line x1="119.83312105318933" y1="-38.936141291243395" x2="188.3091902264404" y2="-61.185364886239626" stroke="rgba(255,255,255,0.12)"/><line x1="123.24659769245952" y1="-26.19687304303763" x2="193.67322494529353" y2="-41.16651478191628" stroke="rgba(255,255,255,0.12)"/><line x1="125.30975881640244" y1="-13.17058637172433" x2="196.9153352829181" y2="-20.69663572699538" stroke="rgba(255,255,255,0.12)"/>
  <circle cx="4.0413344371862654e-15" cy="-66" r="6" fill="#000" stroke="rgba(255,255,255,0.4)"/><circle cx="62.769730075480126" cy="-20.39512162874653" r="6" fill="#000" stroke="rgba(255,255,255,0.4)"/><circle cx="38.79382665130323" cy="53.39512162874653" r="6" fill="#000" stroke="rgba(255,255,255,0.4)"/><circle cx="-38.79382665130322" cy="53.39512162874653" r="6" fill="#000" stroke="rgba(255,255,255,0.4)"/><circle cx="-62.76973007548014" cy="-20.39512162874652" r="6" fill="#000" stroke="rgba(255,255,255,0.4)"/>
  <path d="M-90,-276 L90,-276 L126,-165 L-126,-165 Z" fill="#10141b" stroke="#ff3050" stroke-width="1.4" opacity="0.9"/>
  <g stroke="#7be9ff" opacity="0.8" stroke-width="1" fill="none">
    <line x1="-340" y1="-300" x2="-340" y2="300"/>
    <line x1="-350" y1="-300" x2="-330" y2="-300"/>
    <line x1="-350" y1="300" x2="-330" y2="300"/>
  </g>
  <text x="-350" y="6" font-family="ui-monospace,monospace" font-size="14" fill="#7be9ff" opacity="0.85" text-anchor="end">Ø600</text>
  <g opacity="0.85">
    <circle cx="210" cy="-90" r="6" fill="none" stroke="#7be9ff" stroke-width="1.4"/>
    <circle cx="210" cy="-90" r="2" fill="#7be9ff"/>
    <line x1="210" y1="-90" x2="290" y2="-150" stroke="#7be9ff" stroke-width="1"/>
    <line x1="290" y1="-150" x2="430" y2="-150" stroke="#7be9ff" stroke-width="1"/>
    <text x="300" y="-158" font-family="ui-monospace,monospace" font-size="14" fill="#7be9ff">ECE R90</text>
  </g>
</g>
  <g opacity="0.04"><line x1="0" y1="0" x2="2400" y2="0" stroke="#fff" stroke-width="0.5"/><line x1="0" y1="7" x2="2400" y2="7" stroke="#fff" stroke-width="0.5"/><line x1="0" y1="14" x2="2400" y2="14" stroke="#fff" stroke-width="0.5"/><line x1="0" y1="21" x2="2400" y2="21" stroke="#fff" stroke-width="0.5"/><line x1="0" y1="28" x2="2400" y2="28" stroke="#fff" stroke-width="0.5"/><line x1="0" y1="35" x2="2400" y2="35" stroke="#fff" stroke-width="0.5"/><line x1="0" y1="42" x2="2400" y2="42" stroke="#fff" stroke-width="0.5"/><line x1="0" y1="49" x2="2400" y2="49" stroke="#fff" stroke-width="0.5"/><line x1="0" y1="56" x2="2400" y2="56" stroke="#fff" stroke-width="0.5"/><line x1="0" y1="63" x2="2400" y2="63" stroke="#fff" stroke-width="0.5"/><line x1="0" y1="70" x2="2400" y2="70" stroke="#fff" stroke-width="0.5"/><line x1="0" y1="77" x2="2400" y2="77" stroke="#fff" stroke-width="0.5"/><line x1="0" y1="84" x2="2400" y2="84" stroke="#fff" stroke-width="0.5"/><line x1="0" y1="91" x2="2400" y2="91" stroke="#fff" stroke-width="0.5"/><line x1="0" y1="98" x2="2400" y2="98" stroke="#fff" stroke-width="0.5"/><line x1="0" y1="105" x2="2400" y2="105" stroke="#fff" stroke-width="0.5"/><line x1="0" y1="112" x2="2400" y2="112" stroke="#fff" stroke-width="0.5"/><line x1="0" y1="119" x2="2400" y2="119" stroke="#fff" stroke-width="0.5"/><line x1="0" y1="126" x2="2400" y2="126" stroke="#fff" stroke-width="0.5"/><line x1="0" y1="133" x2="2400" y2="133" stroke="#fff" stroke-width="0.5"/><line x1="0" y1="140" x2="2400" y2="140" stroke="#fff" stroke-width="0.5"/><line x1="0" y1="147" x2="2400" y2="147" stroke="#fff" stroke-width="0.5"/><line x1="0" y1="154" x2="2400" y2="154" stroke="#fff" stroke-width="0.5"/><line x1="0" y1="161" x2="2400" y2="161" stroke="#fff" stroke-width="0.5"/><line x1="0" y1="168" x2="2400" y2="168" stroke="#fff" stroke-width="0.5"/><line x1="0" y1="175" x2="2400" y2="175" stroke="#fff" stroke-width="0.5"/><line x1="0" y1="182" x2="2400" y2="182" stroke="#fff" stroke-width="0.5"/><line x1="0" y1="189" x2="2400" y2="189" stroke="#fff" stroke-width="0.5"/><line x1="0" y1="196" x2="2400" y2="196" stroke="#fff" stroke-width="0.5"/><line x1="0" y1="203" x2="2400" y2="203" stroke="#fff" stroke-width="0.5"/><line x1="0" y1="210" x2="2400" y2="210" stroke="#fff" stroke-width="0.5"/><line x1="0" y1="217" x2="2400" y2="217" stroke="#fff" stroke-width="0.5"/><line x1="0" y1="224" x2="2400" y2="224" stroke="#fff" stroke-width="0.5"/><line x1="0" y1="231" x2="2400" y2="231" stroke="#fff" stroke-width="0.5"/><line x1="0" y1="238" x2="2400" y2="238" stroke="#fff" stroke-width="0.5"/><line x1="0" y1="245" x2="2400" y2="245" stroke="#fff" stroke-width="0.5"/><line x1="0" y1="252" x2="2400" y2="252" stroke="#fff" stroke-width="0.5"/><line x1="0" y1="259" x2="2400" y2="259" stroke="#fff" stroke-width="0.5"/><line x1="0" y1="266" x2="2400" y2="266" stroke="#fff" stroke-width="0.5"/><line x1="0" y1="273" x2="2400" y2="273" stroke="#fff" stroke-width="0.5"/><line x1="0" y1="280" x2="2400" y2="280" stroke="#fff" stroke-width="0.5"/><line x1="0" y1="287" x2="2400" y2="287" stroke="#fff" stroke-width="0.5"/><line x1="0" y1="294" x2="2400" y2="294" stroke="#fff" stroke-width="0.5"/><line x1="0" y1="301" x2="2400" y2="301" stroke="#fff" stroke-width="0.5"/><line x1="0" y1="308" x2="2400" y2="308" stroke="#fff" stroke-width="0.5"/><line x1="0" y1="315" x2="2400" y2="315" stroke="#fff" stroke-width="0.5"/><line x1="0" y1="322" x2="2400" y2="322" stroke="#fff" stroke-width="0.5"/><line x1="0" y1="329" x2="2400" y2="329" stroke="#fff" stroke-width="0.5"/><line x1="0" y1="336" x2="2400" y2="336" stroke="#fff" stroke-width="0.5"/><line x1="0" y1="343" x2="2400" y2="343" stroke="#fff" stroke-width="0.5"/><line x1="0" y1="350" x2="2400" y2="350" stroke="#fff" stroke-width="0.5"/><line x1="0" y1="357" x2="2400" y2="357" stroke="#fff" stroke-width="0.5"/><line x1="0" y1="364" x2="2400" y2="364" stroke="#fff" stroke-width="0.5"/><line x1="0" y1="371" x2="2400" y2="371" stroke="#fff" stroke-width="0.5"/><line x1="0" y1="378" x2="2400" y2="378" stroke="#fff" stroke-width="0.5"/><line x1="0" y1="385" x2="2400" y2="385" stroke="#fff" stroke-width="0.5"/><line x1="0" y1="392" x2="2400" y2="392" stroke="#fff" stroke-width="0.5"/><line x1="0" y1="399" x2="2400" y2="399" stroke="#fff" stroke-width="0.5"/><line x1="0" y1="406" x2="2400" y2="406" stroke="#fff" stroke-width="0.5"/><line x1="0" y1="413" x2="2400" y2="413" stroke="#fff" stroke-width="0.5"/><line x1="0" y1="420" x2="2400" y2="420" stroke="#fff" stroke-width="0.5"/><line x1="0" y1="427" x2="2400" y2="427" stroke="#fff" stroke-width="0.5"/><line x1="0" y1="434" x2="2400" y2="434" stroke="#fff" stroke-width="0.5"/><line x1="0" y1="441" x2="2400" y2="441" stroke="#fff" stroke-width="0.5"/><line x1="0" y1="448" x2="2400" y2="448" stroke="#fff" stroke-width="0.5"/><line x1="0" y1="455" x2="2400" y2="455" stroke="#fff" stroke-width="0.5"/><line x1="0" y1="462" x2="2400" y2="462" stroke="#fff" stroke-width="0.5"/><line x1="0" y1="469" x2="2400" y2="469" stroke="#fff" stroke-width="0.5"/><line x1="0" y1="476" x2="2400" y2="476" stroke="#fff" stroke-width="0.5"/><line x1="0" y1="483" x2="2400" y2="483" stroke="#fff" stroke-width="0.5"/><line x1="0" y1="490" x2="2400" y2="490" stroke="#fff" stroke-width="0.5"/><line x1="0" y1="497" x2="2400" y2="497" stroke="#fff" stroke-width="0.5"/><line x1="0" y1="504" x2="2400" y2="504" stroke="#fff" stroke-width="0.5"/><line x1="0" y1="511" x2="2400" y2="511" stroke="#fff" stroke-width="0.5"/><line x1="0" y1="518" x2="2400" y2="518" stroke="#fff" stroke-width="0.5"/><line x1="0" y1="525" x2="2400" y2="525" stroke="#fff" stroke-width="0.5"/><line x1="0" y1="532" x2="2400" y2="532" stroke="#fff" stroke-width="0.5"/><line x1="0" y1="539" x2="2400" y2="539" stroke="#fff" stroke-width="0.5"/><line x1="0" y1="546" x2="2400" y2="546" stroke="#fff" stroke-width="0.5"/><line x1="0" y1="553" x2="2400" y2="553" stroke="#fff" stroke-width="0.5"/><line x1="0" y1="560" x2="2400" y2="560" stroke="#fff" stroke-width="0.5"/><line x1="0" y1="567" x2="2400" y2="567" stroke="#fff" stroke-width="0.5"/><line x1="0" y1="574" x2="2400" y2="574" stroke="#fff" stroke-width="0.5"/><line x1="0" y1="581" x2="2400" y2="581" stroke="#fff" stroke-width="0.5"/><line x1="0" y1="588" x2="2400" y2="588" stroke="#fff" stroke-width="0.5"/><line x1="0" y1="595" x2="2400" y2="595" stroke="#fff" stroke-width="0.5"/><line x1="0" y1="602" x2="2400" y2="602" stroke="#fff" stroke-width="0.5"/><line x1="0" y1="609" x2="2400" y2="609" stroke="#fff" stroke-width="0.5"/><line x1="0" y1="616" x2="2400" y2="616" stroke="#fff" stroke-width="0.5"/><line x1="0" y1="623" x2="2400" y2="623" stroke="#fff" stroke-width="0.5"/><line x1="0" y1="630" x2="2400" y2="630" stroke="#fff" stroke-width="0.5"/><line x1="0" y1="637" x2="2400" y2="637" stroke="#fff" stroke-width="0.5"/><line x1="0" y1="644" x2="2400" y2="644" stroke="#fff" stroke-width="0.5"/><line x1="0" y1="651" x2="2400" y2="651" stroke="#fff" stroke-width="0.5"/><line x1="0" y1="658" x2="2400" y2="658" stroke="#fff" stroke-width="0.5"/><line x1="0" y1="665" x2="2400" y2="665" stroke="#fff" stroke-width="0.5"/><line x1="0" y1="672" x2="2400" y2="672" stroke="#fff" stroke-width="0.5"/><line x1="0" y1="679" x2="2400" y2="679" stroke="#fff" stroke-width="0.5"/><line x1="0" y1="686" x2="2400" y2="686" stroke="#fff" stroke-width="0.5"/><line x1="0" y1="693" x2="2400" y2="693" stroke="#fff" stroke-width="0.5"/><line x1="0" y1="700" x2="2400" y2="700" stroke="#fff" stroke-width="0.5"/><line x1="0" y1="707" x2="2400" y2="707" stroke="#fff" stroke-width="0.5"/><line x1="0" y1="714" x2="2400" y2="714" stroke="#fff" stroke-width="0.5"/><line x1="0" y1="721" x2="2400" y2="721" stroke="#fff" stroke-width="0.5"/><line x1="0" y1="728" x2="2400" y2="728" stroke="#fff" stroke-width="0.5"/><line x1="0" y1="735" x2="2400" y2="735" stroke="#fff" stroke-width="0.5"/><line x1="0" y1="742" x2="2400" y2="742" stroke="#fff" stroke-width="0.5"/><line x1="0" y1="749" x2="2400" y2="749" stroke="#fff" stroke-width="0.5"/><line x1="0" y1="756" x2="2400" y2="756" stroke="#fff" stroke-width="0.5"/><line x1="0" y1="763" x2="2400" y2="763" stroke="#fff" stroke-width="0.5"/><line x1="0" y1="770" x2="2400" y2="770" stroke="#fff" stroke-width="0.5"/><line x1="0" y1="777" x2="2400" y2="777" stroke="#fff" stroke-width="0.5"/><line x1="0" y1="784" x2="2400" y2="784" stroke="#fff" stroke-width="0.5"/><line x1="0" y1="791" x2="2400" y2="791" stroke="#fff" stroke-width="0.5"/><line x1="0" y1="798" x2="2400" y2="798" stroke="#fff" stroke-width="0.5"/><line x1="0" y1="805" x2="2400" y2="805" stroke="#fff" stroke-width="0.5"/><line x1="0" y1="812" x2="2400" y2="812" stroke="#fff" stroke-width="0.5"/><line x1="0" y1="819" x2="2400" y2="819" stroke="#fff" stroke-width="0.5"/><line x1="0" y1="826" x2="2400" y2="826" stroke="#fff" stroke-width="0.5"/><line x1="0" y1="833" x2="2400" y2="833" stroke="#fff" stroke-width="0.5"/><line x1="0" y1="840" x2="2400" y2="840" stroke="#fff" stroke-width="0.5"/><line x1="0" y1="847" x2="2400" y2="847" stroke="#fff" stroke-width="0.5"/><line x1="0" y1="854" x2="2400" y2="854" stroke="#fff" stroke-width="0.5"/><line x1="0" y1="861" x2="2400" y2="861" stroke="#fff" stroke-width="0.5"/><line x1="0" y1="868" x2="2400" y2="868" stroke="#fff" stroke-width="0.5"/><line x1="0" y1="875" x2="2400" y2="875" stroke="#fff" stroke-width="0.5"/><line x1="0" y1="882" x2="2400" y2="882" stroke="#fff" stroke-width="0.5"/><line x1="0" y1="889" x2="2400" y2="889" stroke="#fff" stroke-width="0.5"/><line x1="0" y1="896" x2="2400" y2="896" stroke="#fff" stroke-width="0.5"/><line x1="0" y1="903" x2="2400" y2="903" stroke="#fff" stroke-width="0.5"/><line x1="0" y1="910" x2="2400" y2="910" stroke="#fff" stroke-width="0.5"/><line x1="0" y1="917" x2="2400" y2="917" stroke="#fff" stroke-width="0.5"/><line x1="0" y1="924" x2="2400" y2="924" stroke="#fff" stroke-width="0.5"/><line x1="0" y1="931" x2="2400" y2="931" stroke="#fff" stroke-width="0.5"/><line x1="0" y1="938" x2="2400" y2="938" stroke="#fff" stroke-width="0.5"/><line x1="0" y1="945" x2="2400" y2="945" stroke="#fff" stroke-width="0.5"/><line x1="0" y1="952" x2="2400" y2="952" stroke="#fff" stroke-width="0.5"/><line x1="0" y1="959" x2="2400" y2="959" stroke="#fff" stroke-width="0.5"/><line x1="0" y1="966" x2="2400" y2="966" stroke="#fff" stroke-width="0.5"/><line x1="0" y1="973" x2="2400" y2="973" stroke="#fff" stroke-width="0.5"/><line x1="0" y1="980" x2="2400" y2="980" stroke="#fff" stroke-width="0.5"/><line x1="0" y1="987" x2="2400" y2="987" stroke="#fff" stroke-width="0.5"/><line x1="0" y1="994" x2="2400" y2="994" stroke="#fff" stroke-width="0.5"/><line x1="0" y1="1001" x2="2400" y2="1001" stroke="#fff" stroke-width="0.5"/><line x1="0" y1="1008" x2="2400" y2="1008" stroke="#fff" stroke-width="0.5"/><line x1="0" y1="1015" x2="2400" y2="1015" stroke="#fff" stroke-width="0.5"/><line x1="0" y1="1022" x2="2400" y2="1022" stroke="#fff" stroke-width="0.5"/><line x1="0" y1="1029" x2="2400" y2="1029" stroke="#fff" stroke-width="0.5"/><line x1="0" y1="1036" x2="2400" y2="1036" stroke="#fff" stroke-width="0.5"/><line x1="0" y1="1043" x2="2400" y2="1043" stroke="#fff" stroke-width="0.5"/><line x1="0" y1="1050" x2="2400" y2="1050" stroke="#fff" stroke-width="0.5"/><line x1="0" y1="1057" x2="2400" y2="1057" stroke="#fff" stroke-width="0.5"/><line x1="0" y1="1064" x2="2400" y2="1064" stroke="#fff" stroke-width="0.5"/><line x1="0" y1="1071" x2="2400" y2="1071" stroke="#fff" stroke-width="0.5"/><line x1="0" y1="1078" x2="2400" y2="1078" stroke="#fff" stroke-width="0.5"/><line x1="0" y1="1085" x2="2400" y2="1085" stroke="#fff" stroke-width="0.5"/><line x1="0" y1="1092" x2="2400" y2="1092" stroke="#fff" stroke-width="0.5"/><line x1="0" y1="1099" x2="2400" y2="1099" stroke="#fff" stroke-width="0.5"/><line x1="0" y1="1106" x2="2400" y2="1106" stroke="#fff" stroke-width="0.5"/><line x1="0" y1="1113" x2="2400" y2="1113" stroke="#fff" stroke-width="0.5"/><line x1="0" y1="1120" x2="2400" y2="1120" stroke="#fff" stroke-width="0.5"/><line x1="0" y1="1127" x2="2400" y2="1127" stroke="#fff" stroke-width="0.5"/><line x1="0" y1="1134" x2="2400" y2="1134" stroke="#fff" stroke-width="0.5"/><line x1="0" y1="1141" x2="2400" y2="1141" stroke="#fff" stroke-width="0.5"/><line x1="0" y1="1148" x2="2400" y2="1148" stroke="#fff" stroke-width="0.5"/><line x1="0" y1="1155" x2="2400" y2="1155" stroke="#fff" stroke-width="0.5"/><line x1="0" y1="1162" x2="2400" y2="1162" stroke="#fff" stroke-width="0.5"/><line x1="0" y1="1169" x2="2400" y2="1169" stroke="#fff" stroke-width="0.5"/><line x1="0" y1="1176" x2="2400" y2="1176" stroke="#fff" stroke-width="0.5"/><line x1="0" y1="1183" x2="2400" y2="1183" stroke="#fff" stroke-width="0.5"/><line x1="0" y1="1190" x2="2400" y2="1190" stroke="#fff" stroke-width="0.5"/><line x1="0" y1="1197" x2="2400" y2="1197" stroke="#fff" stroke-width="0.5"/><line x1="0" y1="1204" x2="2400" y2="1204" stroke="#fff" stroke-width="0.5"/><line x1="0" y1="1211" x2="2400" y2="1211" stroke="#fff" stroke-width="0.5"/><line x1="0" y1="1218" x2="2400" y2="1218" stroke="#fff" stroke-width="0.5"/><line x1="0" y1="1225" x2="2400" y2="1225" stroke="#fff" stroke-width="0.5"/><line x1="0" y1="1232" x2="2400" y2="1232" stroke="#fff" stroke-width="0.5"/><line x1="0" y1="1239" x2="2400" y2="1239" stroke="#fff" stroke-width="0.5"/><line x1="0" y1="1246" x2="2400" y2="1246" stroke="#fff" stroke-width="0.5"/><line x1="0" y1="1253" x2="2400" y2="1253" stroke="#fff" stroke-width="0.5"/><line x1="0" y1="1260" x2="2400" y2="1260" stroke="#fff" stroke-width="0.5"/><line x1="0" y1="1267" x2="2400" y2="1267" stroke="#fff" stroke-width="0.5"/><line x1="0" y1="1274" x2="2400" y2="1274" stroke="#fff" stroke-width="0.5"/><line x1="0" y1="1281" x2="2400" y2="1281" stroke="#fff" stroke-width="0.5"/><line x1="0" y1="1288" x2="2400" y2="1288" stroke="#fff" stroke-width="0.5"/><line x1="0" y1="1295" x2="2400" y2="1295" stroke="#fff" stroke-width="0.5"/><line x1="0" y1="1302" x2="2400" y2="1302" stroke="#fff" stroke-width="0.5"/><line x1="0" y1="1309" x2="2400" y2="1309" stroke="#fff" stroke-width="0.5"/><line x1="0" y1="1316" x2="2400" y2="1316" stroke="#fff" stroke-width="0.5"/><line x1="0" y1="1323" x2="2400" y2="1323" stroke="#fff" stroke-width="0.5"/><line x1="0" y1="1330" x2="2400" y2="1330" stroke="#fff" stroke-width="0.5"/><line x1="0" y1="1337" x2="2400" y2="1337" stroke="#fff" stroke-width="0.5"/><line x1="0" y1="1344" x2="2400" y2="1344" stroke="#fff" stroke-width="0.5"/><line x1="0" y1="1351" x2="2400" y2="1351" stroke="#fff" stroke-width="0.5"/><line x1="0" y1="1358" x2="2400" y2="1358" stroke="#fff" stroke-width="0.5"/><line x1="0" y1="1365" x2="2400" y2="1365" stroke="#fff" stroke-width="0.5"/><line x1="0" y1="1372" x2="2400" y2="1372" stroke="#fff" stroke-width="0.5"/><line x1="0" y1="1379" x2="2400" y2="1379" stroke="#fff" stroke-width="0.5"/><line x1="0" y1="1386" x2="2400" y2="1386" stroke="#fff" stroke-width="0.5"/><line x1="0" y1="1393" x2="2400" y2="1393" stroke="#fff" stroke-width="0.5"/></g>
  <g opacity="0.55" font-family="ui-monospace, SFMono-Regular, Menlo, monospace" font-size="16" fill="#7be9ff">
    <g stroke="#7be9ff" stroke-width="1.4" fill="none">
      <path d="M40,40 L40,110 M40,40 L110,40"/>
      <path d="M2360,40 L2360,110 M2360,40 L2290,40"/>
      <path d="M40,1310 L40,1240 M40,1310 L110,1310"/>
      <path d="M2360,1310 L2360,1240 M2360,1310 L2290,1310"/>
    </g>
    <text x="60" y="90">VTH-001 / 24V</text>
    <text x="2140" y="90">SCALE 1:4</text>
    <text x="60" y="1290">REV.04 · 2026</text>
    <text x="2140" y="1290">QC IATF 16949</text>
    <g stroke="#7be9ff" stroke-width="1" opacity="0.7"><line x1="140" y1="1310" x2="140" y2="1290"/><line x1="228" y1="1310" x2="228" y2="1300"/><line x1="316" y1="1310" x2="316" y2="1300"/><line x1="404" y1="1310" x2="404" y2="1300"/><line x1="492" y1="1310" x2="492" y2="1290"/><line x1="580" y1="1310" x2="580" y2="1300"/><line x1="668" y1="1310" x2="668" y2="1300"/><line x1="756" y1="1310" x2="756" y2="1300"/><line x1="844" y1="1310" x2="844" y2="1290"/><line x1="932" y1="1310" x2="932" y2="1300"/><line x1="1020" y1="1310" x2="1020" y2="1300"/><line x1="1108" y1="1310" x2="1108" y2="1300"/><line x1="1196" y1="1310" x2="1196" y2="1290"/><line x1="1284" y1="1310" x2="1284" y2="1300"/><line x1="1372" y1="1310" x2="1372" y2="1300"/><line x1="1460" y1="1310" x2="1460" y2="1300"/><line x1="1548" y1="1310" x2="1548" y2="1290"/><line x1="1636" y1="1310" x2="1636" y2="1300"/><line x1="1724" y1="1310" x2="1724" y2="1300"/><line x1="1812" y1="1310" x2="1812" y2="1300"/><line x1="1900" y1="1310" x2="1900" y2="1290"/><line x1="1988" y1="1310" x2="1988" y2="1300"/><line x1="2076" y1="1310" x2="2076" y2="1300"/><line x1="2164" y1="1310" x2="2164" y2="1300"/></g>
  </g>
</svg>