<svg xmlns="http://www.w3.org/2000/svg" viewBox="0 0 2400 1350" width="2400" height="1350" role="img" preserveAspectRatio="xMidYMid slice">
  <defs>
    <radialGradient id="bgrad" cx="50%" cy="40%" r="80%">
      <stop offset="0%" stop-color="#15181d"/>
      <stop offset="55%" stop-color="#0a0c10"/>
      <stop offset="100%" stop-color="#000"/>
    </radialGradient>
    <radialGradient id="glow" cx="600" cy="742.5000000000001" r="1080" gradientUnits="userSpaceOnUse">
      <stop offset="0%" stop-color="hsla(20, 95%, 55%, 0.55)"/>
      <stop offset="35%" stop-color="hsla(20, 90%, 45%, 0.18)"/>
      <stop offset="100%" stop-color="hsla(20, 90%, 45%, 0)"/>
    </radialGradient>
    <linearGradient id="floor" x1="0" y1="0" x2="0" y2="1">
      <stop offset="0%" stop-color="rgba(255,255,255,0)"/>
      <stop offset="100%" stop-color="rgba(255,255,255,0.04)"/>
    </linearGradient>
    <filter id="soft"><feGaussianBlur stdDeviation="2"/></filter>
  </defs>
  <rect width="2400" height="1350" fill="url(#bgrad)"/>
  <rect width="2400" height="1350" fill="url(#glow)"/>
  <rect y="944.9999999999999" width="2400" height="405" fill="url(#floor)"/>
  <g transform="translate(1320,675)" opacity="0.92">
    <path d="M280,0 L247.15789066161406,49.16276114806432 L258.68626910316027,107.15136106222513 L209.5303423002414,140.00369872093975 L197.9898987322333,197.98989873223329 L140.00369872093978,209.5303423002414 L107.15136106222515,258.68626910316027 L49.16276114806434,247.15789066161406 L1.7145055188062946e-14,280 L-49.162761148064305,247.15789066161406 L-107.15136106222512,258.68626910316027 L-140.0036987209397,209.53034230024141 L-197.98989873223329,197.9898987322333 L-209.53034230024141,140.00369872093975 L-258.68626910316027,107.15136106222516 L-247.15789066161406,49.16276114806441 L-280,3.429011037612589e-14 L-247.15789066161406,-49.16276114806435 L-258.6862691031603,-107.1513610622251 L-209.53034230024144,-140.0036987209397 L-197.98989873223334,-197.98989873223329 L-140.00369872093975,-209.5303423002414 L-107.15136106222529,-258.6862691031602 L-49.162761148064426,-247.15789066161403 L-5.143516556418883e-14,-280 L49.162761148064334,-247.15789066161406 L107.1513610622252,-258.68626910316027 L140.00369872093967,-209.53034230024144 L197.98989873223326,-197.98989873223334 L209.5303423002414,-140.00369872093975 L258.6862691031602,-107.1513610622253 L247.15789066161403,-49.16276114806444 Z" fill="#0d1014" stroke="rgba(255,255,255,0.15)"/>
    <circle r="154" fill="#16191f"/>
    <circle r="50.4" fill="#0a0c10" stroke="rgba(200,16,46,0.5)"/>
  </g><g transform="translate(768,837)" opacity="0.92">
    <path d="M180,0 L158.88721542532332,31.604632166612777 L166.2983158520316,68.88301782571617 L134.69807719301232,90.00237774917555 L127.27922061357856,127.27922061357854 L90.00237774917557,134.69807719301232 L68.88301782571617,166.2983158520316 L31.604632166612788,158.88721542532332 L1.1021821192326179e-14,180 L-31.604632166612767,158.88721542532332 L-68.88301782571615,166.2983158520316 L-90.00237774917552,134.69807719301235 L-127.27922061357854,127.27922061357856 L-134.69807719301235,90.00237774917555 L-166.2983158520316,68.88301782571618 L-158.88721542532332,31.604632166612834 L-180,2.2043642384652358e-14 L-158.88721542532332,-31.604632166612795 L-166.29831585203164,-68.88301782571614 L-134.69807719301235,-90.00237774917552 L-127.27922061357859,-127.27922061357854 L-90.00237774917555,-134.69807719301232 L-68.88301782571627,-166.29831585203158 L-31.604632166612845,-158.88721542532332 L-3.3065463576978534e-14,-180 L31.604632166612785,-158.88721542532332 L68.8830178257162,-166.2983158520316 L90.0023777491755,-134.69807719301235 L127.27922061357852,-127.27922061357859 L134.69807719301232,-90.00237774917555 L166.29831585203158,-68.88301782571627 L158.88721542532332,-31.604632166612852 Z" fill="#0d1014" stroke="rgba(255,255,255,0.15)"/>
    <circle r="99.00000000000001" fill="#16191f"/>
    <circle r="32.4" fill="#0a0c10" stroke="rgba(200,16,46,0.5)"/>
  </g>
  <line x1="0" y1="972" x2="2400" y2="972" stroke="rgba(255,255,255,0.05)" stroke-width="1"/>
</svg>