<svg xmlns="http://www.w3.org/2000/svg" viewBox="0 0 2400 1350" width="2400" height="1350" role="img" preserveAspectRatio="xMidYMid slice">
  <defs>
    <radialGradient id="bgrad" cx="50%" cy="40%" r="80%">
      <stop offset="0%" stop-color="#15181d"/>
      <stop offset="55%" stop-color="#0a0c10"/>
      <stop offset="100%" stop-color="#000"/>
    </radialGradient>
    <radialGradient id="glow" cx="1200" cy="742.5000000000001" r="1080" gradientUnits="userSpaceOnUse">
      <stop offset="0%" stop-color="hsla(12, 95%, 55%, 0.55)"/>
      <stop offset="35%" stop-color="hsla(12, 90%, 45%, 0.18)"/>
      <stop offset="100%" stop-color="hsla(12, 90%, 45%, 0)"/>
    </radialGradient>
    <linearGradient id="floor" x1="0" y1="0" x2="0" y2="1">
      <stop offset="0%" stop-color="rgba(255,255,255,0)"/>
      <stop offset="100%" stop-color="rgba(255,255,255,0.04)"/>
    </linearGradient>
    <filter id="soft"><feGaussianBlur stdDeviation="2"/></filter>
  </defs>
  <rect width="2400" height="1350" fill="url(#bgrad)"/>
  <rect width="2400" height="1350" fill="url(#glow)"/>
  <rect y="944.9999999999999" width="2400" height="405" fill="url(#floor)"/>
  <g transform="translate(1320,675)" opacity="0.92">
  <circle r="320" fill="#0d1014" stroke="rgba(255,255,255,0.18)" stroke-width="2"/>
  <circle r="224" fill="#16191f"/>
  <circle r="96" fill="#1a1d24" stroke="rgba(255,80,100,0.5)" stroke-width="1.5"/>
  <line x1="134.4" y1="0" x2="211.20000000000002" y2="0" stroke="rgba(255,255,255,0.07)"/><line x1="129.8204310532508" y1="34.78527966177879" x2="204.00353451225124" y2="54.66258232565238" stroke="rgba(255,255,255,0.07)"/><line x1="116.39381426862856" y1="67.19999999999999" x2="182.90456527927347" y2="105.59999999999998" stroke="rgba(255,255,255,0.07)"/><line x1="95.03515139147198" y1="95.03515139147197" x2="149.34095218659886" y2="149.34095218659883" stroke="rgba(255,255,255,0.07)"/><line x1="67.2" y1="116.39381426862853" x2="105.60000000000002" y2="182.90456527927344" stroke="rgba(255,255,255,0.07)"/><line x1="34.78527966177879" y1="129.8204310532508" x2="54.66258232565238" y2="204.00353451225124" stroke="rgba(255,255,255,0.07)"/><line x1="8.229626490270214e-15" y1="134.4" x2="1.2932270198996051e-14" y2="211.20000000000002" stroke="rgba(255,255,255,0.07)"/><line x1="-34.78527966177877" y1="129.8204310532508" x2="-54.662582325652366" y2="204.00353451225124" stroke="rgba(255,255,255,0.07)"/><line x1="-67.19999999999997" y1="116.39381426862856" x2="-105.59999999999997" y2="182.90456527927347" stroke="rgba(255,255,255,0.07)"/><line x1="-95.03515139147197" y1="95.03515139147198" x2="-149.34095218659883" y2="149.34095218659886" stroke="rgba(255,255,255,0.07)"/><line x1="-116.39381426862856" y1="67.19999999999999" x2="-182.90456527927347" y2="105.59999999999998" stroke="rgba(255,255,255,0.07)"/><line x1="-129.82043105325076" y1="34.78527966177882" x2="-204.0035345122512" y2="54.66258232565244" stroke="rgba(255,255,255,0.07)"/><line x1="-134.4" y1="1.645925298054043e-14" x2="-211.20000000000002" y2="2.5864540397992102e-14" stroke="rgba(255,255,255,0.07)"/><line x1="-129.8204310532508" y1="-34.785279661778794" x2="-204.00353451225124" y2="-54.662582325652394" stroke="rgba(255,255,255,0.07)"/><line x1="-116.39381426862859" y1="-67.19999999999996" x2="-182.9045652792735" y2="-105.59999999999995" stroke="rgba(255,255,255,0.07)"/><line x1="-95.03515139147204" y1="-95.03515139147193" x2="-149.3409521865989" y2="-149.34095218659877" stroke="rgba(255,255,255,0.07)"/><line x1="-67.20000000000006" y1="-116.39381426862853" x2="-105.6000000000001" y2="-182.90456527927344" stroke="rgba(255,255,255,0.07)"/><line x1="-34.78527966177877" y1="-129.8204310532508" x2="-54.662582325652366" y2="-204.00353451225124" stroke="rgba(255,255,255,0.07)"/><line x1="-2.4688879470810638e-14" y1="-134.4" x2="-3.8796810596988144e-14" y2="-211.20000000000002" stroke="rgba(255,255,255,0.07)"/><line x1="34.78527966177872" y1="-129.8204310532508" x2="54.66258232565229" y2="-204.00353451225126" stroke="rgba(255,255,255,0.07)"/><line x1="67.2" y1="-116.39381426862853" x2="105.60000000000002" y2="-182.90456527927344" stroke="rgba(255,255,255,0.07)"/><line x1="95.03515139147197" y1="-95.03515139147201" x2="149.3409521865988" y2="-149.34095218659888" stroke="rgba(255,255,255,0.07)"/><line x1="116.39381426862852" y1="-67.20000000000006" x2="182.90456527927338" y2="-105.6000000000001" stroke="rgba(255,255,255,0.07)"/><line x1="129.82043105325076" y1="-34.7852796617789" x2="204.0035345122512" y2="-54.66258232565256" stroke="rgba(255,255,255,0.07)"/>
  <path d="M-96,-272 L96,-272 L128,-176 L-128,-176 Z" fill="#16191f" stroke="rgba(200,16,46,0.5)" stroke-width="1.2"/>
</g>
  <line x1="0" y1="972" x2="2400" y2="972" stroke="rgba(255,255,255,0.05)" stroke-width="1"/>
</svg>